<mxfile host="app.diagrams.net" modified="2023-09-26T15:01:41.465Z" agent="Mozilla/5.0 (X11; Linux x86_64; rv:109.0) Gecko/20100101 Firefox/114.0" etag="NOEurB7oldrrNM-fP2Rp" version="21.8.0" type="github">
  <diagram name="PÃ¡gina-1" id="TQR9zlu6BJ1Qan-c5ReP">
    <mxGraphModel dx="1434" dy="795" grid="1" gridSize="10" guides="1" tooltips="1" connect="1" arrows="1" fold="1" page="1" pageScale="1" pageWidth="827" pageHeight="1169" math="0" shadow="0">
      <root>
        <mxCell id="0" />
        <mxCell id="1" parent="0" />
      </root>
    </mxGraphModel>
  </diagram>
</mxfile>
